<svg preserveAspectRatio="xMidYMid meet" data-bbox="19.999 41.943 160.001 116.114" viewBox="19.999 41.943 160.001 116.114" height="200" width="200" xmlns="http://www.w3.org/2000/svg" data-type="color" role="presentation" aria-hidden="true" aria-label=""><defs><style>#comp-m30pgpc1 svg [data-color="1"] {fill: #DBDBDB;}
    #comp-m30pgpc1 svg [data-color="2"] {fill: #FFFFFF;}
    #comp-m30pgpc1 svg [data-color="3"] {fill: #129FD5;}</style></defs>
        <g>
            <path fill="#0891b2" d="M158.417 100c0 32.064-26.111 58.057-58.321 58.057-32.21 0-58.321-25.993-58.321-58.057 0-32.064 26.111-58.057 58.321-58.057 32.21 0 58.321 25.993 58.321 58.057z" data-color="1"></path>
            <path d="M178.07 82.446l-5.21-22.309c-.366-1.463-1.92-2.286-3.291-1.646l-20.568 9.417c-1.828.823-1.828 3.383-.091 4.297l3.748 1.829c1.371.64 1.737 2.377.823 3.566-2.56 3.291-5.942 6.674-10.33 9.326-.091-6.949-3.108-13.531-11.426-18.834-14.9-7.406-27.058 1.829-30.623 11.52h-3.017c-3.565-9.6-14.9-18.834-29.8-11.337-8.318 5.211-11.427 11.886-11.427 18.834-4.388-2.651-7.77-6.126-10.33-9.417-.914-1.189-.548-2.926.823-3.566l3.748-1.829c1.828-.914 1.737-3.474-.091-4.297L30.44 58.491c-1.371-.64-3.017.183-3.291 1.646l-5.21 22.309a2.354 2.354 0 0 0 3.382 2.651l3.382-1.646c1.097-.549 2.377-.183 3.108.823 5.485 8.229 15.357 18.651 31.446 22.674a148.4 148.4 0 0 0 2.468 3.931c7.77 11.794 30.349 28.251 33.914 30.811l.366.366.366-.366c3.565-2.56 26.144-19.017 33.914-30.811 1.463-2.286 3.199-5.12 2.651-4.023 15.997-4.023 25.778-14.446 31.263-22.674.64-1.006 2.011-1.371 3.108-.823l3.382 1.646c1.736 1.006 3.838-.639 3.381-2.559z" fill="#FFFFFF" data-color="2"></path>
            <path d="M179.899 81.989l-5.21-22.309c-.274-1.28-1.188-2.377-2.377-2.926-1.188-.549-2.56-.64-3.748 0l-20.568 9.417c-1.554.731-2.56 2.194-2.56 3.931s.914 3.2 2.468 4.023l3.748 1.829c.091.091.183.091.183.274 0 .091 0 .183-.091.366-2.102 2.743-4.388 5.029-6.947 6.949-.091-.366-.091-.823-.183-1.189-1.371-6.309-5.393-11.52-11.884-15.634-.091 0-.091-.091-.183-.091-7.587-3.749-15.449-3.84-22.122-.274-4.845 2.56-8.776 7.04-10.878 11.886-2.011-5.029-5.85-9.417-10.695-12.069-4.479-2.377-11.884-4.297-21.39.457-.091 0-.091.091-.183.091-6.49 4.114-10.512 9.326-11.884 15.634-.091.366-.183.823-.183 1.189-2.468-1.92-4.753-4.206-6.856-6.857-.091-.091-.091-.274-.091-.366 0-.091.091-.183.183-.274l3.748-1.829c1.554-.731 2.468-2.286 2.468-4.023 0-1.737-1.006-3.2-2.56-3.931l-20.659-9.6a4.47 4.47 0 0 0-3.748 0c-1.188.549-2.011 1.646-2.377 2.926l-5.21 22.309c-.366 1.646.183 3.383 1.554 4.48 1.371 1.097 3.199 1.28 4.662.457l3.382-1.646c.183-.091.366 0 .457.091 5.759 8.686 15.723 18.926 31.629 23.223.64 1.097 1.371 2.194 2.102 3.383 7.861 11.977 29.8 28.069 34.371 31.269l.366.274c.366.366.823.457 1.28.457.183 0 .274 0 .457-.091.366-.091.64-.183.914-.457l.366-.274c4.479-3.2 26.509-19.383 34.371-31.269.731-1.097 1.463-2.194 2.102-3.291 15.906-4.297 25.87-14.629 31.629-23.314.091-.183.274-.183.457-.091l3.382 1.646c1.554.731 3.382.549 4.662-.457 1.371-.917 2.011-2.654 1.646-4.299zm-146.26 1.097c-.823-1.28-2.285-1.92-3.656-1.92-.64 0-1.371.183-2.011.457l-3.382 1.646c-.091 0-.183.091-.366 0-.183-.183-.183-.366-.091-.366l5.21-22.309c0-.183.091-.183.183-.274.091 0 .183-.091.366 0l20.568 9.417c.091 0 .183.091.183.366 0 .274-.183.274-.183.366l-3.748 1.829c-1.188.549-2.011 1.646-2.285 2.926-.274 1.28 0 2.651.823 3.657 2.377 3.017 5.576 6.309 9.781 9.143.183 4.754 1.554 9.874 4.205 15.451C46.62 98.994 38.484 90.4 33.639 83.086zm99 26.697c-7.222 10.971-27.972 26.331-32.634 29.806-4.753-3.474-25.504-18.834-32.634-29.806-6.856-10.423-9.598-19.474-8.044-26.697 1.097-5.12 4.479-9.509 10.055-13.074 7.953-3.931 13.986-2.377 17.643-.457 6.125 3.291 9.415 9.6 10.055 14.446.823 6.766-.091 18.377-14.9 21.029-1.828-2.194-4.845-6.4-5.485-9.874 3.291.274 5.942-.914 7.496-3.291.183-.183.274-.457.366-.64.091-.183.183-.274.183-.457.457-.914.64-1.92.64-3.017 0-4.023-3.291-7.314-7.313-7.314-3.199 0-5.942 2.103-6.947 4.937-1.006 2.56-1.188 6.674 1.737 12.983 4.936 10.606 17.003 20.114 26.327 26.149.64.457 1.554.457 2.194 0 8.318-5.303 19.197-13.806 24.224-23.771.183-.274.823-1.646.823-1.737 2.194-5.12 2.651-8.777 2.377-11.429 0-4.023-3.291-7.223-7.313-7.223s-7.313 3.291-7.313 7.314c0 3.657 2.742 6.766 6.307 7.223.914.183 1.92.274 3.017.183a20.328 20.328 0 0 1-.823 2.56c-.091.274-.548 1.097-.64 1.371-1.28 2.56-3.108 4.846-4.022 5.943-11.335-2.103-17.277-9.874-15.906-21.029.64-5.577 4.845-11.337 10.238-14.263 3.931-2.103 10.238-3.749 18.374.274 5.485 3.474 8.867 7.863 10.055 13.074 1.461 7.313-1.19 16.273-8.137 26.787zm43.146-26.514c-.183.183-.366.091-.366 0l-3.382-1.646c-2.011-1.006-4.388-.366-5.668 1.463-4.936 7.314-12.98 15.909-25.595 20.389 2.651-5.577 4.114-10.697 4.205-15.451 4.205-2.743 7.496-6.126 9.781-9.143.823-1.006 1.097-2.377.823-3.657-.274-1.28-1.097-2.377-2.285-2.926l-3.748-1.829c-.091 0-.183-.091-.183-.366 0-.274.183-.274.183-.366l20.568-9.417c.091-.091.274 0 .366 0 .091 0 .183.091.183.274l5.21 22.309c.091 0 .091.183-.092.366z" fill="#2859B5" data-color="3"></path>
        </g>
    </svg>